<mxfile host="app.diagrams.net" agent="Mozilla/5.0 (Windows NT 10.0; Win64; x64) AppleWebKit/537.36 (KHTML, like Gecko) Chrome/131.0.0.0 Safari/537.36 Edg/131.0.0.0" version="25.0.3">
  <diagram name="第 1 页" id="NICuHueWsGP95vi5qKA2">
    <mxGraphModel dx="784" dy="1133" grid="1" gridSize="10" guides="1" tooltips="1" connect="1" arrows="1" fold="1" page="1" pageScale="1" pageWidth="5000" pageHeight="5000" math="0" shadow="0">
      <root>
        <mxCell id="0" />
        <mxCell id="1" parent="0" />
        <mxCell id="zVBcUPyb4f7lGXmDr70f-11" style="rounded=0;orthogonalLoop=1;jettySize=auto;html=1;entryX=0;entryY=0.5;entryDx=0;entryDy=0;fontSize=16;" edge="1" parent="1" source="zVBcUPyb4f7lGXmDr70f-1" target="zVBcUPyb4f7lGXmDr70f-2">
          <mxGeometry relative="1" as="geometry" />
        </mxCell>
        <mxCell id="zVBcUPyb4f7lGXmDr70f-12" style="rounded=0;orthogonalLoop=1;jettySize=auto;html=1;entryX=0;entryY=0.5;entryDx=0;entryDy=0;fontSize=16;" edge="1" parent="1" source="zVBcUPyb4f7lGXmDr70f-1" target="zVBcUPyb4f7lGXmDr70f-3">
          <mxGeometry relative="1" as="geometry" />
        </mxCell>
        <mxCell id="zVBcUPyb4f7lGXmDr70f-13" style="rounded=0;orthogonalLoop=1;jettySize=auto;html=1;entryX=0;entryY=0.5;entryDx=0;entryDy=0;fontSize=16;" edge="1" parent="1" source="zVBcUPyb4f7lGXmDr70f-1" target="zVBcUPyb4f7lGXmDr70f-5">
          <mxGeometry relative="1" as="geometry" />
        </mxCell>
        <mxCell id="zVBcUPyb4f7lGXmDr70f-1" value="教师" style="shape=umlActor;verticalLabelPosition=bottom;verticalAlign=top;html=1;outlineConnect=0;fontSize=16;" vertex="1" parent="1">
          <mxGeometry x="60" y="430" width="30" height="60" as="geometry" />
        </mxCell>
        <mxCell id="zVBcUPyb4f7lGXmDr70f-2" value="登录与信息管理" style="ellipse;whiteSpace=wrap;html=1;fontSize=16;" vertex="1" parent="1">
          <mxGeometry x="160" y="330" width="160" height="40" as="geometry" />
        </mxCell>
        <mxCell id="zVBcUPyb4f7lGXmDr70f-14" style="rounded=0;orthogonalLoop=1;jettySize=auto;html=1;entryX=0;entryY=0.5;entryDx=0;entryDy=0;dashed=1;exitX=1;exitY=0.5;exitDx=0;exitDy=0;" edge="1" parent="1" source="zVBcUPyb4f7lGXmDr70f-3" target="zVBcUPyb4f7lGXmDr70f-7">
          <mxGeometry relative="1" as="geometry" />
        </mxCell>
        <mxCell id="zVBcUPyb4f7lGXmDr70f-15" style="rounded=0;orthogonalLoop=1;jettySize=auto;html=1;entryX=0;entryY=0.5;entryDx=0;entryDy=0;dashed=1;exitX=1;exitY=0.5;exitDx=0;exitDy=0;" edge="1" parent="1" source="zVBcUPyb4f7lGXmDr70f-3" target="zVBcUPyb4f7lGXmDr70f-10">
          <mxGeometry relative="1" as="geometry" />
        </mxCell>
        <mxCell id="zVBcUPyb4f7lGXmDr70f-3" value="课程管理" style="ellipse;whiteSpace=wrap;html=1;fontSize=16;" vertex="1" parent="1">
          <mxGeometry x="160" y="440" width="160" height="40" as="geometry" />
        </mxCell>
        <mxCell id="zVBcUPyb4f7lGXmDr70f-16" style="rounded=0;orthogonalLoop=1;jettySize=auto;html=1;dashed=1;exitX=1;exitY=0.5;exitDx=0;exitDy=0;entryX=0;entryY=0.5;entryDx=0;entryDy=0;" edge="1" parent="1" source="zVBcUPyb4f7lGXmDr70f-5" target="zVBcUPyb4f7lGXmDr70f-8">
          <mxGeometry relative="1" as="geometry" />
        </mxCell>
        <mxCell id="zVBcUPyb4f7lGXmDr70f-17" style="rounded=0;orthogonalLoop=1;jettySize=auto;html=1;entryX=0;entryY=0.5;entryDx=0;entryDy=0;dashed=1;exitX=1;exitY=0.5;exitDx=0;exitDy=0;" edge="1" parent="1" source="zVBcUPyb4f7lGXmDr70f-5" target="zVBcUPyb4f7lGXmDr70f-9">
          <mxGeometry relative="1" as="geometry" />
        </mxCell>
        <mxCell id="zVBcUPyb4f7lGXmDr70f-5" value="课表查看与操作" style="ellipse;whiteSpace=wrap;html=1;fontSize=16;" vertex="1" parent="1">
          <mxGeometry x="160" y="550" width="160" height="40" as="geometry" />
        </mxCell>
        <mxCell id="zVBcUPyb4f7lGXmDr70f-7" value="教学资源申请" style="ellipse;whiteSpace=wrap;html=1;fontSize=16;" vertex="1" parent="1">
          <mxGeometry x="400" y="460" width="160" height="40" as="geometry" />
        </mxCell>
        <mxCell id="zVBcUPyb4f7lGXmDr70f-8" value="调课申请" style="ellipse;whiteSpace=wrap;html=1;fontSize=16;" vertex="1" parent="1">
          <mxGeometry x="400" y="520" width="160" height="40" as="geometry" />
        </mxCell>
        <mxCell id="zVBcUPyb4f7lGXmDr70f-9" value="课表查看" style="ellipse;whiteSpace=wrap;html=1;fontSize=16;" vertex="1" parent="1">
          <mxGeometry x="400" y="600" width="160" height="40" as="geometry" />
        </mxCell>
        <mxCell id="zVBcUPyb4f7lGXmDr70f-10" value="课程信息查看与反馈" style="ellipse;whiteSpace=wrap;html=1;fontSize=16;" vertex="1" parent="1">
          <mxGeometry x="400" y="380" width="160" height="40" as="geometry" />
        </mxCell>
      </root>
    </mxGraphModel>
  </diagram>
</mxfile>
